# xmcd CD database file
#
# Track frame offsets:
#	150
#	78400
#	159156
#
# Disc length: 3691 seconds
#
# Revision: 0
# Processed by: cddbd v1.5.1PL0 Copyright (c) Steve Scherf et al.
# Submitted via: CDex 1.51
#
DISCID=130e6903
DTITLE=Sonny Rollins - In Chicago [CD1]
DYEAR=2005
DGENRE=Jazz
TTITLE0=2005 - 04-22 d1t01
TTITLE1=2005 - 04-22 d1t02
TTITLE2=2005 - 04-22 d1t03
EXTD=YEAR: 2005
EXTT0=
EXTT1=
EXTT2=
PLAYORDER=
